{"title":"Charlie.Zone.2011.BRRip XViD juggs","uid":8512470,"size":745902615,"categoryP":"video","categoryS":"movies","magnet":"?xt=urn:btih:5d42828f21367d887caaf13ea052be9fa2e376be&amp;dn=Charlie.Zone.2011.BRRip+XViD+juggs&amp;tr=udp%3A%2F%2Ftracker.openbittorrent.com%3A80&amp;tr=udp%3A%2F%2Fopen.demonii.com%3A1337&amp;tr=udp%3A%2F%2Ftracker.coppersurfer.tk%3A6969&amp;tr=udp%3A%2F%2Fexodus.desync.com%3A6969","seeders":1,"leechers":2,"uploader":"juggs99","files":3,"time":1369614240,"description":"Source : EbP(Thanks)\n &lt;a href=&quot;\nhttp://www.imdb.com/title/tt1874451/&quot; rel=&quot;nofollow&quot; target=&quot;_NEW&quot;&gt;\nhttp://www.imdb.com/title/tt1874451/&lt;/a&gt;\n\nFormat                                   : AVI\nFormat/Info                              : Audio Video Interleave\nFile size                                : 697 MiB\nDuration                                 : 1h 42mn\nOverall bit rate                         : 948 Kbps\nWriting library                          : VirtualDub build 32842/release\n\nVideo\nID                                       : 0\nFormat                                   : MPEG-4 Visual\nFormat profile                           : Advanced Simple@L5\nFormat settings, BVOP                    : 2\nFormat settings, QPel                    : No\nFormat settings, GMC                     : No warppoints\nFormat settings, Matrix                  : Default (H.263)\nMuxing mode                              : Packed bitstream\nCodec ID                                 : XVID\nCodec ID/Hint                            : XviD\nDuration                                 : 1h 42mn\nBit rate                                 : 811 Kbps\nWidth                                    : 640 pixels\nHeight                                   : 352 pixels\nDisplay aspect ratio                     : 16:9\nFrame rate                               : 23.976 fps\nColor space                              : YUV\nChroma subsampling                       : 4:2:0\nBit depth                                : 8 bits\nScan type                                : Progressive\nCompression mode                         : Lossy\nBits/(Pixel*Frame)                       : 0.150\nStream size                              : 596 MiB (86%)\nWriting library                          : XviD 64\n\nAudio\nID                                       : 1\nFormat                                   : MPEG Audio\nFormat version                           : Version 1\nFormat profile                           : Layer 3\nCodec ID                                 : 55\nCodec ID/Hint                            : MP3\nDuration                                 : 1h 42mn\nBit rate mode                            : Constant\nBit rate                                 : 128 Kbps\nChannel(s)                               : 2 channels\nSampling rate                            : 48.0 KHz\nCompression mode                         : Lossy\nStream size                              : 94.1 MiB (13%)\nAlignment                                : Split accross interleaves\nInterleave, duration                     : 42 ms (1.00 video frame)\nInterleave, preload duration             : 500 ms\nWriting library                          : LAME3.99r\nEncoding settings                        : -m s -V 4 -q 3 -lowpass 17 -b 128\n\nPlot\nAvery Paul, a disgraced boxer and ex-convict, is hired to abduct a runaway from a notorious drug house and return her safely to her family. But nothing goes as planned and nothing is what it seems. \n &lt;a href=&quot;\nhttp://www.shotpix.com/images/78352574101600609830.png&quot; rel=&quot;nofollow&quot; target=&quot;_NEW&quot;&gt;\nhttp://www.shotpix.com/images/78352574101600609830.png&lt;/a&gt; &lt;a href=&quot;\nhttp://www.shotpix.com/images/81754564571208990933.png&quot; rel=&quot;nofollow&quot; target=&quot;_NEW&quot;&gt;\nhttp://www.shotpix.com/images/81754564571208990933.png&lt;/a&gt; &lt;a href=&quot;\nhttp://www.shotpix.com/images/73422890257151710976.png&quot; rel=&quot;nofollow&quot; target=&quot;_NEW&quot;&gt;\nhttp://www.shotpix.com/images/73422890257151710976.png&lt;/a&gt;","torrent":{"xt":"urn:btih:5d42828f21367d887caaf13ea052be9fa2e376be","amp;dn":"Charlie.Zone.2011.BRRip+XViD+juggs","amp;tr":["udp%3A%2F%2Ftracker.openbittorrent.com%3A80","udp%3A%2F%2Fopen.demonii.com%3A1337","udp%3A%2F%2Ftracker.coppersurfer.tk%3A6969","udp%3A%2F%2Fexodus.desync.com%3A6969"],"infoHash":"5d42828f21367d887caaf13ea052be9fa2e376be","infoHashBuffer":{"type":"Buffer","data":[93,66,130,143,33,54,125,136,124,170,241,62,160,82,190,159,162,227,118,190]},"announce":[],"urlList":[]}}